# xmcd
#
# Track frame offsets: 
#        187
#        13757
#        27375
#        41427
#        54322
#        66837
#        78262
#        89217
#        102542
#        113637
#        126050
#        137780
#        149892
#        164265
#        175142
#        187502
#        200692
#        211700
#        224782
#        236137
#        249852
#        262797
#        276115
#
# Disc length: 3862 seconds
#
# Revision: 8
# Processed by: cddbd v1.5.2PL0 Copyright (c) Steve Scherf et al.
# Submitted via: ExactAudioCopy v0.99pb5
#
DISCID=510f1417
DTITLE=Hank Williams - Great American Hero disc 3 Hey,Good Lookin'(195
DTITLE=0-1951)
DYEAR=1995
DGENRE=Country
TTITLE0=Too Many Parties And Too Many Pals (Luke the Drifter)
TTITLE1=Beyond The Sunset (Luke the Drifter)
TTITLE2=The Funeral (Luke the Drifter)
TTITLE3=Everything's Okay (Luke the Drifter)
TTITLE4=They'll Never Take Her Love From Me
TTITLE5=Nobody's Lonesome For Me
TTITLE6=Moanin' The Blues
TTITLE7=Help Me Understand
TTITLE8=No, No Joe (Luke the Drifter)
TTITLE9=Cold, Cold Heart
TTITLE10=Dear John
TTITLE11=Just Waitin' (Luke the Drifter)
TTITLE12=Men With Broken Hearts (Luke the Drifter)
TTITLE13=I Can't Help It (If I'm Still In Love With You)
TTITLE14=Howlin' At The Moon
TTITLE15=Hey, Good Lookin'
TTITLE16=My Heart Would Know
TTITLE17=The Pale Horse And His Rider (with Audrey Williams)
TTITLE18=A Home In Heaven (with Audrey Williams)
TTITLE19=Ramblin' Man
TTITLE20=Pictures From Life's Other Side (Luke the Drifter)
TTITLE21=I've Been Down That Road Before (Luke the Drifter)
TTITLE22=I Dreamed About Mama Last Night (Luke the Drifter)
EXTD=YEAR: 1998 ID3G:   2
EXTT0=
EXTT1=
EXTT2=
EXTT3=
EXTT4=
EXTT5=
EXTT6=
EXTT7=
EXTT8=
EXTT9=
EXTT10=
EXTT11=
EXTT12=
EXTT13=
EXTT14=
EXTT15=
EXTT16=
EXTT17=
EXTT18=
EXTT19=
EXTT20=
EXTT21=
EXTT22=
PLAYORDER=
